<svg width="111" height="24" viewBox="0 0 111 24" fill="none" xmlns="http://www.w3.org/2000/svg">
<path d="M0 4.5C0 2.01472 2.01472 0 4.5 0H19.5C21.9853 0 24 2.01472 24 4.5V19.5C24 21.9853 21.9853 24 19.5 24H4.5C2.01472 24 0 21.9853 0 19.5V4.5Z" fill="#FF444F"/>
<path d="M4.5 0C2.01472 0 0 2.01472 0 4.5V4.63071L22.4358 1.08948C21.6478 0.4105 20.6218 0 19.5 0H4.5Z" fill="#E12E3A"/>
<path d="M22.899 1.55081L18.7833 24L19.5 24C21.9853 24 24 21.9853 24 19.5V4.5C24 3.37182 23.5848 2.34061 22.899 1.55081Z" fill="#E12E3A"/>
<path d="M7.45441 14.2995C7.53141 14.3065 7.61891 14.3135 7.71691 14.3205C7.82191 14.3205 7.94441 14.3205 8.08441 14.3205C8.90341 14.3205 9.50891 14.114 9.90091 13.701C10.2999 13.288 10.4994 12.7175 10.4994 11.9895C10.4994 11.2265 10.3104 10.649 9.93241 10.257C9.55441 9.86496 8.95591 9.66896 8.13691 9.66896C8.02491 9.66896 7.90941 9.67246 7.79041 9.67946C7.67141 9.67946 7.55941 9.68646 7.45441 9.70046V14.2995ZM12.1899 11.9895C12.1899 12.6195 12.0919 13.169 11.8959 13.638C11.6999 14.107 11.4199 14.4955 11.0559 14.8035C10.6989 15.1115 10.2614 15.3425 9.74341 15.4965C9.22541 15.6505 8.64441 15.7275 8.00041 15.7275C7.70641 15.7275 7.36341 15.7135 6.97141 15.6855C6.57941 15.6645 6.19441 15.6155 5.81641 15.5385V8.45096C6.19441 8.38096 6.58641 8.33546 6.99241 8.31446C7.40541 8.28646 7.75891 8.27246 8.05291 8.27246C8.67591 8.27246 9.23941 8.34246 9.74341 8.48246C10.2544 8.62246 10.6919 8.84296 11.0559 9.14396C11.4199 9.44496 11.6999 9.82996 11.8959 10.299C12.0919 10.768 12.1899 11.3315 12.1899 11.9895Z" fill="white"/>
<path d="M18.184 8.35646V9.75296H15.9895V15.633H14.3515V9.75296H12.157V8.35646H18.184Z" fill="white"/>
<path fill-rule="evenodd" clip-rule="evenodd" d="M36.2465 6.63474L35.6557 9.98503H33.605C31.6919 9.98503 29.8683 11.5351 29.5303 13.4483L29.3873 14.2626C29.0509 16.1758 30.3274 17.7258 32.2405 17.7258H33.9509C35.3453 17.7258 36.6736 16.5971 36.9189 15.2027L38.4941 6.27343L36.2465 6.63474ZM34.7914 14.8867C34.716 15.3174 34.3282 15.668 33.8974 15.668H32.8583C31.9984 15.668 31.4231 14.97 31.574 14.1085L31.6636 13.6007C31.8161 12.7408 32.6367 12.0413 33.4966 12.0413H35.2932L34.7914 14.8867Z" fill="#414652"/>
<path d="M52.0395 17.7264H54.168L55.5136 10.0925H53.3851L52.0395 17.7264Z" fill="#414652"/>
<path d="M52.1103 11.0877L52.1107 11.0859C52.164 10.7841 52.2173 10.4822 52.2704 10.1804C50.0864 9.61765 48.3852 10.1999 47.6924 10.4867C47.6924 10.4867 46.7043 16.088 46.415 17.7282H48.545C48.8906 15.768 49.2363 13.8073 49.5815 11.8471C49.9011 11.7834 50.9415 11.6836 51.9499 11.9969C52.0033 11.6938 52.0568 11.3907 52.1103 11.0877Z" fill="#414652"/>
<path fill-rule="evenodd" clip-rule="evenodd" d="M43.6381 9.98425H41.9827C40.3682 9.98425 38.8293 11.2922 38.5447 12.9067L38.2099 14.8041C37.9253 16.4186 39.0022 17.7266 40.6167 17.7266H44.1412L44.5027 15.6751H41.1904C40.6528 15.6751 40.2928 15.2396 40.3887 14.7004L40.3997 14.6359H45.7399L46.0449 12.9067C46.3294 11.2922 45.2526 9.98425 43.6381 9.98425ZM43.9085 12.7432L43.8959 12.8532H40.7204L40.7377 12.7558C40.8336 12.2181 41.3241 11.7449 41.8632 11.7449H43.1036C43.6365 11.7449 43.9965 12.2103 43.9085 12.7432Z" fill="#414652"/>
<path d="M59.213 15.1277C60.1794 13.389 61.2449 11.1078 61.6889 10.0925H63.8206C63.095 12.0216 61.4321 15.3033 59.8213 17.7264H57.6913C56.9519 15.4202 56.4744 12.2069 56.3833 10.0925H58.5134C58.5519 10.7822 58.8606 13.3405 59.213 15.1277Z" fill="#414652"/>
<path d="M74.6887 7.08598V9.18074H71.397V18.0007H68.94V9.18074H65.6482V7.08598H74.6887Z" fill="#414652"/>
<path d="M79.2235 11.7952C79.0135 11.7427 78.7667 11.6902 78.4832 11.6377C78.1997 11.5747 77.8952 11.5432 77.5697 11.5432C77.4227 11.5432 77.2442 11.559 77.0342 11.5905C76.8347 11.6115 76.6825 11.6377 76.5775 11.6692V18.0007H74.2307V10.1572C74.6507 10.0102 75.1442 9.87374 75.7112 9.74774C76.2887 9.61124 76.9292 9.54299 77.6327 9.54299C77.7587 9.54299 77.911 9.55349 78.0895 9.57449C78.268 9.58499 78.4465 9.60599 78.625 9.63749C78.8035 9.65849 78.982 9.68999 79.1605 9.73199C79.339 9.76349 79.4912 9.80549 79.6172 9.85799L79.2235 11.7952Z" fill="#414652"/>
<path d="M83.0997 16.3627C83.3307 16.3627 83.5512 16.3575 83.7612 16.347C83.9712 16.3365 84.1392 16.3207 84.2652 16.2997V14.52C84.1707 14.499 84.029 14.478 83.84 14.457C83.651 14.436 83.4777 14.4255 83.3202 14.4255C83.0997 14.4255 82.8897 14.4412 82.6902 14.4727C82.5012 14.4937 82.3332 14.541 82.1862 14.6145C82.0392 14.688 81.9237 14.7877 81.8397 14.9137C81.7557 15.0397 81.7137 15.1972 81.7137 15.3862C81.7137 15.7537 81.8345 16.011 82.076 16.158C82.328 16.2945 82.6692 16.3627 83.0997 16.3627ZM82.9107 9.49574C83.6037 9.49574 84.1812 9.57449 84.6432 9.73199C85.1052 9.88949 85.4727 10.1152 85.7457 10.4092C86.0292 10.7032 86.2287 11.0602 86.3442 11.4802C86.4597 11.9002 86.5175 12.3675 86.5175 12.882V17.7645C86.1815 17.838 85.7142 17.922 85.1157 18.0165C84.5172 18.1215 83.7927 18.174 82.9422 18.174C82.4067 18.174 81.9185 18.1267 81.4775 18.0322C81.047 17.9377 80.6742 17.7855 80.3592 17.5755C80.0442 17.355 79.8027 17.0715 79.6347 16.725C79.4667 16.3785 79.3827 15.9532 79.3827 15.4492C79.3827 14.9662 79.4772 14.5567 79.6662 14.2207C79.8657 13.8847 80.1282 13.617 80.4537 13.4175C80.7792 13.218 81.152 13.0762 81.572 12.9922C81.992 12.8977 82.4277 12.8505 82.8792 12.8505C83.1837 12.8505 83.4515 12.8662 83.6825 12.8977C83.924 12.9187 84.1182 12.9502 84.2652 12.9922V12.7717C84.2652 12.3727 84.1445 12.0525 83.903 11.811C83.6615 11.5695 83.2415 11.4487 82.643 11.4487C82.244 11.4487 81.8502 11.4802 81.4617 11.5432C81.0732 11.5957 80.7372 11.6745 80.4537 11.7795L80.1545 9.88949C80.291 9.84749 80.459 9.80549 80.6585 9.76349C80.8685 9.71099 81.0942 9.66899 81.3357 9.63749C81.5772 9.59549 81.8292 9.56399 82.0917 9.54299C82.3647 9.51149 82.6377 9.49574 82.9107 9.49574Z" fill="#414652"/>
<path d="M89.8523 13.7955C89.8523 14.52 90.015 15.1027 90.3405 15.5437C90.666 15.9847 91.149 16.2052 91.7895 16.2052C91.9995 16.2052 92.1938 16.2 92.3723 16.1895C92.5508 16.1685 92.6978 16.1475 92.8133 16.1265V11.8582C92.6663 11.7637 92.472 11.685 92.2305 11.622C91.9995 11.559 91.7633 11.5275 91.5218 11.5275C90.4088 11.5275 89.8523 12.2835 89.8523 13.7955ZM95.16 17.733C94.9501 17.796 94.7085 17.859 94.4355 17.922C94.1626 17.9745 93.8738 18.0217 93.5693 18.0637C93.2753 18.1057 92.9708 18.1372 92.6558 18.1582C92.3513 18.1897 92.0573 18.2055 91.7738 18.2055C91.0913 18.2055 90.4823 18.1057 89.9468 17.9062C89.4113 17.7067 88.9598 17.4232 88.5923 17.0557C88.2248 16.6777 87.9413 16.2262 87.7418 15.7012C87.5528 15.1657 87.4583 14.5672 87.4583 13.9057C87.4583 13.2337 87.5423 12.63 87.7103 12.0945C87.8783 11.5485 88.1198 11.0865 88.4348 10.7085C88.7498 10.3305 89.133 10.0417 89.5845 9.84224C90.0465 9.64274 90.5715 9.54299 91.1595 9.54299C91.485 9.54299 91.7738 9.57449 92.0258 9.63749C92.2883 9.70049 92.5508 9.78974 92.8133 9.90524V6.15673L95.16 5.77873V17.733Z" fill="#414652"/>
<path d="M96.1762 13.9215C96.1762 13.1865 96.2864 12.546 96.5069 12C96.7379 11.4435 97.0372 10.9815 97.4047 10.614C97.7722 10.2465 98.1922 9.96824 98.6647 9.77924C99.1477 9.59024 99.6412 9.49574 100.145 9.49574C101.321 9.49574 102.25 9.85799 102.933 10.5825C103.615 11.2965 103.957 12.3517 103.957 13.7482C103.957 13.8847 103.951 14.037 103.941 14.205C103.93 14.3625 103.92 14.5042 103.909 14.6302H98.5859C98.6384 15.1132 98.8642 15.4965 99.2632 15.78C99.6622 16.0635 100.198 16.2052 100.87 16.2052C101.3 16.2052 101.72 16.1685 102.13 16.095C102.55 16.011 102.891 15.9112 103.153 15.7957L103.468 17.7015C103.342 17.7645 103.174 17.8275 102.964 17.8905C102.754 17.9535 102.518 18.006 102.256 18.048C102.004 18.1005 101.731 18.1425 101.437 18.174C101.143 18.2055 100.849 18.2212 100.555 18.2212C99.8092 18.2212 99.1582 18.111 98.6017 17.8905C98.0557 17.67 97.5989 17.3707 97.2314 16.9927C96.8744 16.6042 96.6067 16.1475 96.4282 15.6225C96.2602 15.0975 96.1762 14.5305 96.1762 13.9215ZM101.689 13.0237C101.678 12.8242 101.641 12.63 101.578 12.441C101.526 12.252 101.437 12.084 101.311 11.937C101.195 11.79 101.043 11.6692 100.854 11.5747C100.675 11.4802 100.45 11.433 100.177 11.433C99.9142 11.433 99.6884 11.4802 99.4994 11.5747C99.3104 11.6587 99.1529 11.7742 99.0269 11.9212C98.9009 12.0682 98.8012 12.2415 98.7277 12.441C98.6647 12.63 98.6174 12.8242 98.5859 13.0237H101.689Z" fill="#414652"/>
<path d="M109.973 11.7952C109.763 11.7427 109.516 11.6902 109.233 11.6377C108.949 11.5747 108.645 11.5432 108.319 11.5432C108.172 11.5432 107.994 11.559 107.784 11.5905C107.584 11.6115 107.432 11.6377 107.327 11.6692V18.0007H104.98V10.1572C105.4 10.0102 105.894 9.87374 106.461 9.74774C107.038 9.61124 107.679 9.54299 108.382 9.54299C108.508 9.54299 108.66 9.55349 108.839 9.57449C109.017 9.58499 109.196 9.60599 109.374 9.63749C109.553 9.65849 109.731 9.68999 109.91 9.73199C110.088 9.76349 110.241 9.80549 110.367 9.85799L109.973 11.7952Z" fill="#414652"/>
</svg>
