<svg width="111" height="24" viewBox="0 0 111 24" fill="none" xmlns="http://www.w3.org/2000/svg">
<path d="M0 4.5C0 2.01472 2.01472 0 4.5 0H19.5C21.9853 0 24 2.01472 24 4.5V19.5C24 21.9853 21.9853 24 19.5 24H4.5C2.01472 24 0 21.9853 0 19.5V4.5Z" fill="#FF444F"/>
<path d="M4.5 0C2.01472 0 0 2.01472 0 4.5V4.63071L22.4358 1.08948C21.6478 0.4105 20.6218 0 19.5 0H4.5Z" fill="#E12E3A"/>
<path d="M22.899 1.55081L18.7833 24L19.5 24C21.9853 24 24 21.9853 24 19.5V4.5C24 3.37182 23.5848 2.34061 22.899 1.55081Z" fill="#E12E3A"/>
<path d="M7.45441 14.2995C7.53141 14.3065 7.61891 14.3135 7.71691 14.3205C7.82191 14.3205 7.94441 14.3205 8.08441 14.3205C8.90341 14.3205 9.50891 14.114 9.90091 13.701C10.2999 13.288 10.4994 12.7175 10.4994 11.9895C10.4994 11.2265 10.3104 10.649 9.93241 10.257C9.55441 9.86496 8.95591 9.66896 8.13691 9.66896C8.02491 9.66896 7.90941 9.67246 7.79041 9.67946C7.67141 9.67946 7.55941 9.68646 7.45441 9.70046V14.2995ZM12.1899 11.9895C12.1899 12.6195 12.0919 13.169 11.8959 13.638C11.6999 14.107 11.4199 14.4955 11.0559 14.8035C10.6989 15.1115 10.2614 15.3425 9.74341 15.4965C9.22541 15.6505 8.64441 15.7275 8.00041 15.7275C7.70641 15.7275 7.36341 15.7135 6.97141 15.6855C6.57941 15.6645 6.19441 15.6155 5.81641 15.5385V8.45096C6.19441 8.38096 6.58641 8.33546 6.99241 8.31446C7.40541 8.28646 7.75891 8.27246 8.05291 8.27246C8.67591 8.27246 9.23941 8.34246 9.74341 8.48246C10.2544 8.62246 10.6919 8.84296 11.0559 9.14396C11.4199 9.44496 11.6999 9.82996 11.8959 10.299C12.0919 10.768 12.1899 11.3315 12.1899 11.9895Z" fill="white"/>
<path d="M18.184 8.35646V9.75296H15.9895V15.633H14.3515V9.75296H12.157V8.35646H18.184Z" fill="white"/>
<path fill-rule="evenodd" clip-rule="evenodd" d="M36.2463 6.63469L35.6555 9.98499H33.6048C31.6916 9.98499 29.8681 11.535 29.5301 13.4482L29.387 14.2625C29.0506 16.1757 30.3271 17.7258 32.2403 17.7258H33.9506C35.345 17.7258 36.6734 16.597 36.9186 15.2026L38.4938 6.27338L36.2463 6.63469ZM34.7912 14.8866C34.7157 15.3174 34.3279 15.668 33.8972 15.668H32.8581C31.9982 15.668 31.4228 14.9699 31.5737 14.1085L31.6633 13.6007C31.8158 12.7408 32.6364 12.0412 33.4963 12.0412H35.2929L34.7912 14.8866Z" fill="#414652"/>
<path d="M52.0392 17.7263H54.1677L55.5134 10.0924H53.3849L52.0392 17.7263Z" fill="#414652"/>
<path d="M52.1101 11.0876L52.1104 11.0859C52.1637 10.784 52.217 10.4822 52.2702 10.1804C50.0861 9.6176 48.3849 10.1998 47.6922 10.4867C47.6922 10.4867 46.704 16.088 46.4148 17.7281H48.5447C48.8904 15.7679 49.236 13.8073 49.5812 11.8471C49.9009 11.7833 50.9413 11.6835 51.9497 11.9969C52.0031 11.6938 52.0566 11.3907 52.1101 11.0876Z" fill="#414652"/>
<path fill-rule="evenodd" clip-rule="evenodd" d="M43.6378 9.9842H41.9825C40.368 9.9842 38.829 11.2921 38.5445 12.9066L38.2096 14.8041C37.9251 16.4186 39.002 17.7266 40.6164 17.7266H44.1409L44.5025 15.675H41.1902C40.6526 15.675 40.2926 15.2396 40.3885 14.7003L40.3995 14.6359H45.7397L46.0446 12.9066C46.3291 11.2921 45.2523 9.9842 43.6378 9.9842ZM43.9082 12.7431L43.8957 12.8532H40.7202L40.7375 12.7557C40.8333 12.2181 41.3239 11.7449 41.863 11.7449H43.1033C43.6363 11.7449 43.9963 12.2102 43.9082 12.7431Z" fill="#414652"/>
<path d="M59.2128 15.1276C60.1792 13.3889 61.2447 11.1077 61.6886 10.0924H63.8203C63.0947 12.0216 61.4319 15.3032 59.8211 17.7263H57.691C56.9516 15.4201 56.4741 12.2068 56.383 10.0924H58.5132C58.5516 10.7821 58.8604 13.3404 59.2128 15.1276Z" fill="#414652"/>
<path d="M74.6885 7.08594V9.18069H71.3967V18.0007H68.9397V9.18069H65.648V7.08594H74.6885Z" fill="#414652"/>
<path d="M79.2233 11.7952C79.0133 11.7427 78.7665 11.6902 78.483 11.6377C78.1995 11.5747 77.895 11.5432 77.5695 11.5432C77.4225 11.5432 77.244 11.5589 77.034 11.5904C76.8345 11.6114 76.6822 11.6377 76.5772 11.6692V18.0007H74.2305V10.1572C74.6505 10.0102 75.144 9.87369 75.711 9.74769C76.2885 9.61119 76.929 9.54294 77.6325 9.54294C77.7585 9.54294 77.9107 9.55344 78.0893 9.57444C78.2678 9.58494 78.4463 9.60594 78.6248 9.63744C78.8033 9.65844 78.9817 9.68994 79.1602 9.73194C79.3387 9.76344 79.491 9.80544 79.617 9.85794L79.2233 11.7952Z" fill="#414652"/>
<path d="M83.0995 16.3627C83.3305 16.3627 83.551 16.3574 83.761 16.3469C83.971 16.3364 84.139 16.3207 84.265 16.2997V14.5199C84.1705 14.4989 84.0287 14.4779 83.8397 14.4569C83.6507 14.4359 83.4775 14.4254 83.32 14.4254C83.0995 14.4254 82.8895 14.4412 82.69 14.4727C82.501 14.4937 82.333 14.5409 82.186 14.6144C82.039 14.6879 81.9235 14.7877 81.8395 14.9137C81.7555 15.0397 81.7135 15.1972 81.7135 15.3862C81.7135 15.7537 81.8342 16.0109 82.0757 16.1579C82.3277 16.2944 82.669 16.3627 83.0995 16.3627ZM82.9105 9.49569C83.6035 9.49569 84.181 9.57444 84.643 9.73194C85.105 9.88944 85.4725 10.1152 85.7455 10.4092C86.029 10.7032 86.2285 11.0602 86.344 11.4802C86.4595 11.9002 86.5172 12.3674 86.5172 12.8819V17.7644C86.1812 17.8379 85.714 17.9219 85.1155 18.0164C84.517 18.1214 83.7925 18.1739 82.942 18.1739C82.4065 18.1739 81.9182 18.1267 81.4772 18.0322C81.0467 17.9377 80.674 17.7854 80.359 17.5754C80.044 17.3549 79.8025 17.0714 79.6345 16.7249C79.4665 16.3784 79.3825 15.9532 79.3825 15.4492C79.3825 14.9662 79.477 14.5567 79.666 14.2207C79.8655 13.8847 80.128 13.6169 80.4535 13.4174C80.779 13.2179 81.1517 13.0762 81.5717 12.9922C81.9917 12.8977 82.4275 12.8504 82.879 12.8504C83.1835 12.8504 83.4512 12.8662 83.6822 12.8977C83.9237 12.9187 84.118 12.9502 84.265 12.9922V12.7717C84.265 12.3727 84.1442 12.0524 83.9027 11.8109C83.6612 11.5694 83.2412 11.4487 82.6427 11.4487C82.2437 11.4487 81.85 11.4802 81.4615 11.5432C81.073 11.5957 80.737 11.6744 80.4535 11.7794L80.1542 9.88944C80.2907 9.84744 80.4587 9.80544 80.6582 9.76344C80.8682 9.71094 81.094 9.66894 81.3355 9.63744C81.577 9.59544 81.829 9.56394 82.0915 9.54294C82.3645 9.51144 82.6375 9.49569 82.9105 9.49569Z" fill="#414652"/>
<path d="M89.8521 13.7954C89.8521 14.5199 90.0148 15.1027 90.3403 15.5437C90.6658 15.9847 91.1488 16.2052 91.7893 16.2052C91.9993 16.2052 92.1936 16.1999 92.3721 16.1894C92.5506 16.1684 92.6976 16.1474 92.8131 16.1264V11.8582C92.6661 11.7637 92.4718 11.6849 92.2303 11.6219C91.9993 11.5589 91.7631 11.5274 91.5216 11.5274C90.4086 11.5274 89.8521 12.2834 89.8521 13.7954ZM95.1598 17.7329C94.9498 17.7959 94.7083 17.8589 94.4353 17.9219C94.1623 17.9744 93.8736 18.0217 93.5691 18.0637C93.2751 18.1057 92.9706 18.1372 92.6556 18.1582C92.3511 18.1897 92.0571 18.2054 91.7736 18.2054C91.0911 18.2054 90.4821 18.1057 89.9466 17.9062C89.411 17.7067 88.9595 17.4232 88.592 17.0557C88.2245 16.6777 87.941 16.2262 87.7415 15.7012C87.5525 15.1657 87.4581 14.5672 87.4581 13.9057C87.4581 13.2337 87.542 12.6299 87.71 12.0944C87.878 11.5484 88.1195 11.0864 88.4345 10.7084C88.7495 10.3304 89.1328 10.0417 89.5843 9.84219C90.0463 9.64269 90.5713 9.54294 91.1593 9.54294C91.4848 9.54294 91.7736 9.57444 92.0256 9.63744C92.2881 9.70044 92.5506 9.78969 92.8131 9.90519V6.15669L95.1598 5.77869V17.7329Z" fill="#414652"/>
<path d="M96.1759 13.9214C96.1759 13.1864 96.2862 12.5459 96.5067 11.9999C96.7377 11.4434 97.0369 10.9814 97.4044 10.6139C97.7719 10.2464 98.1919 9.96819 98.6644 9.77919C99.1474 9.59019 99.6409 9.49569 100.145 9.49569C101.321 9.49569 102.25 9.85794 102.933 10.5824C103.615 11.2964 103.956 12.3517 103.956 13.7482C103.956 13.8847 103.951 14.0369 103.941 14.2049C103.93 14.3624 103.92 14.5042 103.909 14.6302H98.5857C98.6382 15.1132 98.8639 15.4964 99.2629 15.7799C99.6619 16.0634 100.197 16.2052 100.869 16.2052C101.3 16.2052 101.72 16.1684 102.129 16.0949C102.549 16.0109 102.891 15.9112 103.153 15.7957L103.468 17.7014C103.342 17.7644 103.174 17.8274 102.964 17.8904C102.754 17.9534 102.518 18.0059 102.255 18.0479C102.003 18.1004 101.73 18.1424 101.436 18.1739C101.142 18.2054 100.848 18.2212 100.554 18.2212C99.8089 18.2212 99.1579 18.1109 98.6014 17.8904C98.0554 17.6699 97.5987 17.3707 97.2312 16.9927C96.8742 16.6042 96.6064 16.1474 96.4279 15.6224C96.2599 15.0974 96.1759 14.5304 96.1759 13.9214ZM101.688 13.0237C101.678 12.8242 101.641 12.6299 101.578 12.4409C101.526 12.2519 101.436 12.0839 101.31 11.9369C101.195 11.7899 101.043 11.6692 100.854 11.5747C100.675 11.4802 100.449 11.4329 100.176 11.4329C99.9139 11.4329 99.6882 11.4802 99.4992 11.5747C99.3102 11.6587 99.1527 11.7742 99.0267 11.9212C98.9007 12.0682 98.8009 12.2414 98.7274 12.4409C98.6644 12.6299 98.6172 12.8242 98.5857 13.0237H101.688Z" fill="#414652"/>
<path d="M109.973 11.7952C109.763 11.7427 109.516 11.6902 109.232 11.6377C108.949 11.5747 108.644 11.5432 108.319 11.5432C108.172 11.5432 107.993 11.5589 107.783 11.5904C107.584 11.6114 107.432 11.6377 107.327 11.6692V18.0007H104.98V10.1572C105.4 10.0102 105.893 9.87369 106.46 9.74769C107.038 9.61119 107.678 9.54294 108.382 9.54294C108.508 9.54294 108.66 9.55344 108.839 9.57444C109.017 9.58494 109.196 9.60594 109.374 9.63744C109.553 9.65844 109.731 9.68994 109.91 9.73194C110.088 9.76344 110.24 9.80544 110.366 9.85794L109.973 11.7952Z" fill="#414652"/>
</svg>
