<svg width="24" height="24" viewBox="0 0 24 24" fill="none" xmlns="http://www.w3.org/2000/svg">
<path d="M12 2C17.5228 2 22 6.47715 22 12C22 15.1827 20.5132 18.0181 18.1963 19.8495L18 20C16.3285 21.2562 14.2511 22 12 22C6.47715 22 2 17.5228 2 12C2 6.47715 6.47715 2 12 2ZM14.5 13.5H9.5C8.17452 13.5 7.08996 14.5315 7.00532 15.8356L7 16L6.99978 19.4843C8.42993 20.4417 10.1498 21 12 21C13.8507 21 15.5709 20.4414 17.0012 19.4836L17 16C17 14.6193 15.8807 13.5 14.5 13.5ZM12 3C7.02944 3 3 7.02944 3 12C3 14.6657 4.1589 17.0607 6.00034 18.7086L6 16C6 14.1314 7.46428 12.6049 9.30796 12.5052L9.5 12.5H14.5C16.3686 12.5 17.8951 13.9643 17.9948 15.808L18 16L18.0006 18.7077C19.8415 17.0598 21 14.6652 21 12C21 7.02944 16.9706 3 12 3ZM12 5C13.6569 5 15 6.34315 15 8C15 9.65685 13.6569 11 12 11C10.3431 11 9 9.65685 9 8C9 6.34315 10.3431 5 12 5ZM12 6C10.8954 6 10 6.89543 10 8C10 9.10457 10.8954 10 12 10C13.1046 10 14 9.10457 14 8C14 6.89543 13.1046 6 12 6Z" fill="#333333"/>
</svg>
