<svg width="24" height="24" viewBox="0 0 24 24" fill="none" xmlns="http://www.w3.org/2000/svg">
<rect width="24" height="24" rx="12" fill="#85ACB0"/>
<path d="M13.1512 4.5C16.9981 4.5 20.25 8.05755 20.25 12C20.25 15.9424 16.9981 19.5 13.1512 19.5H6.75C6.33579 19.5 6 19.1642 6 18.75C6 18.3358 6.33579 18 6.75 18H8.25V15H6.75C6.36537 15 6.04837 14.7105 6.00505 14.3375L6 14.25C6 13.8358 6.33579 13.5 6.75 13.5H8.25V10.5H6.75C6.36537 10.5 6.04837 10.2105 6.00505 9.83747L6 9.75C6 9.33579 6.33579 9 6.75 9H8.25V6H6.75C6.36537 6 6.04837 5.71047 6.00505 5.33747L6 5.25C6 4.83579 6.33579 4.5 6.75 4.5H13.1512ZM13.1512 6H9.75V9H12.75C13.1346 9 13.4516 9.28953 13.495 9.66253L13.5 9.75C13.5 10.1642 13.1642 10.5 12.75 10.5H9.75V13.5H12.75C13.1346 13.5 13.4516 13.7895 13.495 14.1625L13.5 14.25C13.5 14.6642 13.1642 15 12.75 15H9.75V18H13.1512C16.0807 18 18.6494 15.2514 18.7471 12.181L18.75 12C18.75 8.8574 16.1381 6 13.1512 6Z" fill="white"/>
</svg>
