<svg width="18" height="20" viewBox="0 0 18 20" fill="none" xmlns="http://www.w3.org/2000/svg">
<path d="M8.00005 18.0488C8.00005 18.5876 8.50005 19.0244 9.00005 19.0244C9.46434 19.0244 9.92862 18.6478 9.99258 18.1626L10.0001 18.0488H8.00005ZM9.00005 0.97561C8.72234 0.97561 8.50005 1.19247 8.50005 1.46341V3.39182L7.71171 3.55839C4.9841 4.13467 3.00005 6.50622 3.00005 9.26829V15.5261L1.41434 17.0727L16.5829 17.0703L15.0001 15.5261V9.26829C15.0001 6.50622 13.016 4.13467 10.2884 3.55839L9.50005 3.39182V1.46341C9.50005 1.19247 9.27777 0.97561 9.00005 0.97561ZM9.00005 20C7.98579 20 7.08553 19.1957 7.00579 18.1933L7.00005 18.0488H1.41005C0.520051 18.0488 0.0800515 16.9951 0.710051 16.3805L2.00005 15.122V9.26829C2.00005 6 4.36005 3.26829 7.50005 2.60488V1.46341C7.50005 0.653659 8.17005 0 9.00005 0C9.83005 0 10.5001 0.653659 10.5001 1.46341V2.60488C13.6401 3.26829 16.0001 6 16.0001 9.26829V15.122L17.2901 16.3805C17.9201 16.9951 17.4701 18.0488 16.5801 18.0488H11.0001C11.0001 19.1173 10.0626 20 9.00005 20Z" fill="#333333"/>
</svg>
