<svg width="17" height="16" viewBox="0 0 17 16" fill="none" xmlns="http://www.w3.org/2000/svg">
<g clip-path="url(#clip0_80336_1913)">
<path d="M2.16675 6C1.89061 6 1.66675 6.22386 1.66675 6.5V13.5C1.66675 13.7761 1.89061 14 2.16675 14H15.1667C15.4429 14 15.6667 13.7761 15.6667 13.5V6.5C15.6667 6.22386 15.4429 6 15.1667 6H2.16675ZM15.6667 1C16.219 1 16.6667 1.44772 16.6667 2V3C16.6667 3.55228 16.219 4 15.6667 4H13.6667V5H15.1667C15.9952 5 16.6667 5.67157 16.6667 6.5V13.5C16.6667 14.3284 15.9952 15 15.1667 15H2.16675C1.33832 15 0.666748 14.3284 0.666748 13.5V6.5C0.666748 5.67157 1.33832 5 2.16675 5H2.66675V3H7.66675V5H12.6667V4H10.6667C10.1145 4 9.66675 3.55228 9.66675 3V2C9.66675 1.44772 10.1145 1 10.6667 1H15.6667ZM15.6667 11H1.66675V12H15.6667V11ZM14.1667 9H11.1667C10.8906 9 10.6667 9.22386 10.6667 9.5C10.6667 9.77614 10.8906 10 11.1667 10H14.1667C14.4429 10 14.6667 9.77614 14.6667 9.5C14.6667 9.22386 14.4429 9 14.1667 9ZM9.16675 9C8.89061 9 8.66675 9.22386 8.66675 9.5C8.66675 9.77614 8.89061 10 9.16675 10C9.44289 10 9.66675 9.77614 9.66675 9.5C9.66675 9.22386 9.44289 9 9.16675 9ZM7.16675 9C6.89061 9 6.66675 9.22386 6.66675 9.5C6.66675 9.77614 6.89061 10 7.16675 10C7.44289 10 7.66675 9.77614 7.66675 9.5C7.66675 9.22386 7.44289 9 7.16675 9ZM5.16675 9C4.89061 9 4.66675 9.22386 4.66675 9.5C4.66675 9.77614 4.89061 10 5.16675 10C5.44289 10 5.66675 9.77614 5.66675 9.5C5.66675 9.22386 5.44289 9 5.16675 9ZM3.16675 9C2.89061 9 2.66675 9.22386 2.66675 9.5C2.66675 9.77614 2.89061 10 3.16675 10C3.44289 10 3.66675 9.77614 3.66675 9.5C3.66675 9.22386 3.44289 9 3.16675 9ZM14.1667 7H11.1667C10.8906 7 10.6667 7.22386 10.6667 7.5C10.6667 7.77614 10.8906 8 11.1667 8H14.1667C14.4429 8 14.6667 7.77614 14.6667 7.5C14.6667 7.22386 14.4429 7 14.1667 7ZM9.16675 7C8.89061 7 8.66675 7.22386 8.66675 7.5C8.66675 7.77614 8.89061 8 9.16675 8C9.44289 8 9.66675 7.77614 9.66675 7.5C9.66675 7.22386 9.44289 7 9.16675 7ZM7.16675 7C6.89061 7 6.66675 7.22386 6.66675 7.5C6.66675 7.77614 6.89061 8 7.16675 8C7.44289 8 7.66675 7.77614 7.66675 7.5C7.66675 7.22386 7.44289 7 7.16675 7ZM5.16675 7C4.89061 7 4.66675 7.22386 4.66675 7.5C4.66675 7.77614 4.89061 8 5.16675 8C5.44289 8 5.66675 7.77614 5.66675 7.5C5.66675 7.22386 5.44289 7 5.16675 7ZM3.16675 7C2.89061 7 2.66675 7.22386 2.66675 7.5C2.66675 7.77614 2.89061 8 3.16675 8C3.44289 8 3.66675 7.77614 3.66675 7.5C3.66675 7.22386 3.44289 7 3.16675 7ZM6.66675 4H3.66675V5H6.66675V4ZM15.6667 2H10.6667V3H15.6667V2Z" fill="#333333"/>
</g>
<defs>
<clipPath id="clip0_80336_1913">
<rect width="16" height="16" fill="white" transform="translate(0.666748)"/>
</clipPath>
</defs>
</svg>
